<svg width="74" height="74" viewBox="0 0 74 74" fill="none" xmlns="http://www.w3.org/2000/svg">
<g id="box-search 1">
<path id="Vector" d="M36.998 41.008C36.5972 41.008 36.1963 40.9155 35.8263 40.6996L8.60038 24.9438C7.49038 24.2963 7.12031 22.8779 7.76781 21.7679C8.41531 20.6579 9.80281 20.2878 10.9436 20.9353L36.998 36.013L62.8977 21.0279C64.0077 20.3804 65.426 20.7813 66.0735 21.8604C66.721 22.9704 66.3205 24.3887 65.2413 25.0362L38.2005 40.6996C37.7997 40.8846 37.3988 41.008 36.998 41.008Z" fill="#8637F8"/>
<path id="Vector_2" d="M37 68.9434C35.7358 68.9434 34.6875 67.895 34.6875 66.6309V38.665C34.6875 37.4009 35.7358 36.3525 37 36.3525C38.2642 36.3525 39.3125 37.4009 39.3125 38.665V66.6309C39.3125 67.895 38.2642 68.9434 37 68.9434Z" fill="#8637F8"/>
<path id="Vector_3" d="M36.9966 70.1466C34.1908 70.1466 31.5083 69.4991 29.4733 68.3583L13.0083 59.2319C8.53743 56.7653 5.02246 50.8141 5.02246 45.6958V28.2442C5.02246 23.1258 8.53743 17.206 13.0083 14.7085L29.4733 5.58172C33.6666 3.23839 40.2649 3.23839 44.4891 5.58172L60.9541 14.7085C65.4249 17.1751 68.9399 23.1258 68.9399 28.2442V39.5291C68.9399 40.7933 67.8916 41.8416 66.6274 41.8416C65.3633 41.8416 64.3149 40.7933 64.3149 39.5291V28.2442C64.3149 24.8525 61.6941 20.4126 58.7341 18.7785L42.2691 9.65175C39.4633 8.07925 34.5608 8.07925 31.7549 9.65175L15.2899 18.7785C12.2991 20.4435 9.7091 24.8525 9.7091 28.2442V45.6958C9.7091 49.0875 12.3299 53.5278 15.2899 55.1619L31.7549 64.2883C34.4683 65.7991 39.5866 65.7991 42.2691 64.2883C43.3791 63.6716 44.7974 64.0728 45.4141 65.1828C46.0308 66.2928 45.6299 67.7108 44.5199 68.3275C42.4849 69.4991 39.8024 70.1466 36.9966 70.1466Z" fill="#8637F8"/>
<path id="Vector_4" d="M59.2002 68.2958C52.4785 68.2958 47.021 62.8383 47.021 56.1167C47.021 49.395 52.4785 43.9375 59.2002 43.9375C65.9218 43.9375 71.3793 49.395 71.3793 56.1167C71.3793 62.8383 65.9218 68.2958 59.2002 68.2958ZM59.2002 48.5625C55.0377 48.5625 51.646 51.9542 51.646 56.1167C51.646 60.2792 55.0377 63.6708 59.2002 63.6708C63.3627 63.6708 66.7543 60.2792 66.7543 56.1167C66.7543 51.9542 63.3627 48.5625 59.2002 48.5625Z" fill="#8637F8"/>
<path id="Vector_5" d="M70.915 70.1458C70.3292 70.1458 69.7433 69.9299 69.2808 69.4674L66.1975 66.3841C65.3033 65.4899 65.3033 64.0096 66.1975 63.1154C67.0916 62.2213 68.5716 62.2213 69.4658 63.1154L72.5491 66.1988C73.4433 67.093 73.4433 68.5733 72.5491 69.4674C72.0866 69.9299 71.5008 70.1458 70.915 70.1458Z" fill="#8637F8"/>
</g>
</svg>
